# xmcd
#
# Track frame offsets:
#	150
#	16529
#	33573
#	53871
#	72177
#	91060
#	116114
#	139277
#	163789
#	182713
#	202945
#	226428
#	245846
#	262114
#	278962
#	295569
#	312365
#
# Disc length: 4415 seconds
#
# Revision: 10
# Processed by: cddbd v1.5.2PL0 Copyright (c) Steve Scherf et al.
# Submitted via: audiograbber 1.83.01
#
DISCID=f7113d11
DTITLE=Angel Wey - A Tribute To The Very Best Of Madonna
DYEAR=2001
DGENRE=Pop
TTITLE0=Don't Tell Me
TTITLE1=Music
TTITLE2=American Pie
TTITLE3=Beatiful Stranger
TTITLE4=The Power Of Good-Bye
TTITLE5=Ray Of Light
TTITLE6=Frozen
TTITLE7=Don't Cry For Me Argentina
TTITLE8=You'll See
TTITLE9=Take A Bow
TTITLE10=This Used To Be My Playground
TTITLE11=Vogue
TTITLE12=Who's That Girl
TTITLE13=La Isla Bonita
TTITLE14=True Blue
TTITLE15=Borderline
TTITLE16=Holiday
EXTD=
EXTT0=
EXTT1=
EXTT2=
EXTT3=
EXTT4=
EXTT5=
EXTT6=
EXTT7=
EXTT8=
EXTT9=
EXTT10=
EXTT11=
EXTT12=
EXTT13=
EXTT14=
EXTT15=
EXTT16=
PLAYORDER=
